<?xml version="1.0" encoding="utf-8"?>
<!-- Generator: Adobe Illustrator 21.0.0, SVG Export Plug-In . SVG Version: 6.00 Build 0)  -->
<svg version="1.1" id="Layer_1" xmlns="http://www.w3.org/2000/svg" xmlns:xlink="http://www.w3.org/1999/xlink" x="0px" y="0px"
	 viewBox="0 0 849 105" style="enable-background:new 0 0 849 105;" xml:space="preserve">
<style type="text/css">
	.st0{fill-rule:evenodd;clip-rule:evenodd;}
	.st1{fill-rule:evenodd;clip-rule:evenodd;fill:#CF0A2C;}
	.st2{clip-path:url(#SVGID_2_);}
	.st3{clip-path:url(#SVGID_4_);}
	
		.st4{fill-rule:evenodd;clip-rule:evenodd;fill:none;stroke:#FFFFFF;stroke-width:7.0158;stroke-linejoin:round;stroke-miterlimit:3.8637;}
	
		.st5{fill-rule:evenodd;clip-rule:evenodd;fill:none;stroke:#FFFFFF;stroke-width:7.0158;stroke-linecap:round;stroke-linejoin:round;stroke-miterlimit:3.8637;}
</style>
<g>
	<g>
		<g>
			<path class="st0" d="M835.1,3.4c-1.4,1.5-2.2,3.2-2.2,5.3c0,2.1,0.7,3.8,2.2,5.3c1.4,1.5,3.2,2.2,5.3,2.2c2.1,0,3.8-0.7,5.3-2.2
				c1.4-1.5,2.2-3.2,2.2-5.3c0-2.1-0.7-3.8-2.2-5.3c-1.5-1.5-3.2-2.2-5.3-2.2C838.3,1.2,836.6,1.9,835.1,3.4z M846.5,14.8
				c-1.7,1.7-3.7,2.5-6.1,2.5c-2.4,0-4.4-0.8-6.1-2.5c-1.7-1.7-2.5-3.7-2.5-6.1c0-2.4,0.8-4.4,2.5-6.1C836,0.8,838,0,840.4,0
				c2.4,0,4.4,0.8,6.1,2.5c1.7,1.7,2.5,3.7,2.5,6.1C849,11,848.2,13.1,846.5,14.8z M842,5.3c-0.4-0.2-1.1-0.4-2-0.4h-1.4v3.4h1.5
				c0.7,0,1.2-0.1,1.6-0.2c0.7-0.3,1-0.8,1-1.5C842.6,6,842.4,5.6,842,5.3z M840.2,3.9c1.2,0,2,0.1,2.6,0.3c1,0.4,1.5,1.2,1.5,2.4
				c0,0.8-0.3,1.5-0.9,1.9c-0.3,0.2-0.8,0.4-1.4,0.5c0.7,0.1,1.3,0.4,1.6,0.9c0.3,0.5,0.5,1,0.5,1.5V12c0,0.2,0,0.5,0,0.7
				c0,0.3,0,0.4,0.1,0.5l0.1,0.1h-1.6c0,0,0-0.1,0-0.1c0,0,0-0.1,0-0.1l0-0.3v-0.8c0-1.1-0.3-1.8-0.9-2.2c-0.4-0.2-1-0.3-1.9-0.3
				h-1.3v3.7h-1.7V3.9H840.2z"/>
		</g>
		<g>
			<g>
				<path class="st1" d="M175.3,17.3h102.1c0,0,7.1-0.1,7.1,7.6c0,8.3,0,13.4,0,13.4l-63.3,47.2h63.3l0,19.4H181.5
					c0,0-6.3,0-6.3-6.5c0-6.5,0-14.7,0-14.7L238,36.5l-62.8,0.1V17.3z"/>
			</g>
			<g>
				<g>
					<rect x="123.1" y="17.3" class="st1" width="38.8" height="87.6"/>
				</g>
			</g>
			<g>
				<path class="st1" d="M296.1,85.6c0,0,0-46,0-49c-0.1-18.4,16-19.3,36.7-19.3l73.4,0l0,19.2h-62c-6.8,0.1-9.8,2.3-9.8,6.3l0,8.6
					h71.8l0,19.3h-71.7v9.2c0,3.6,3,5.7,9.8,5.6h62l0,19.4h-73.3C312,105,296.1,104.9,296.1,85.6z"/>
			</g>
			<g>
				<path class="st1" d="M419.5,85.8V17.3H458v62.6c0,3.7,3.2,5.6,9.6,5.6h40.1l0,19.4c0,0-53.2,0.1-53.4,0
					C433.3,105,419.5,105,419.5,85.8z"/>
			</g>
			<g>
				<polygon class="st1" points="488.2,36.6 488.2,17.3 597.4,17.3 597.4,36.6 562,36.6 562,104.8 523.5,104.8 523.5,36.6 				"/>
			</g>
			<g>
				<g>
					<path class="st1" d="M729.5,35.1c0-1.5,0.5-7.3,5.7-12c8.1-5.7,8.6-5.7,27.5-5.7h68.9l0,19.4l-59.3-0.1c-5.5,0-8.3,1.6-8.3,4.2
						v5.8c0,0.6-0.2,1.2,0,1.3c0,2.6,2.6,3.6,8.3,3.6c0.5,0,3.2,0,4.4,0h27c8.1,0,14.3,0,21.4,3.3c9.4,4.1,9.5,9.4,9.5,15.9v14.9
						c0,6.9,0,10.9-10,16.1c-6.3,3.2-14.3,3.1-23.4,3.1l-68.6,0V85.6l60.2,0c6.1,0,8.4-1.8,8.4-4.2v-6.6c0-2.4-2.5-4.1-8.1-4.1
						h-30.4c-12.7,0-19.5-0.5-27.5-5.7c-5.3-3.5-5.7-7.7-5.7-11V35.1z"/>
				</g>
			</g>
			<g>
				<path class="st1" d="M643,51.5h38.3V40.9c0,0-0.1-4.4-5.2-4.4h-29.3c0,0-3.8,0.8-3.8,4.4V51.5z M607.7,105l0-73.8
					c0,0,2.4-14,19.7-14h69.8c0,0,19.6,0.8,19.6,15.8v71.8h-35.5V70.6H643l0,34.3H607.7z"/>
			</g>
		</g>
	</g>
	<g>
		<g>
			<defs>
				<path id="SVGID_1_" d="M0,26.5c0-5.1,5.2-9.2,11.5-9.2h86.7c6.4,0,11.5,4.1,11.5,9.2v69.2c0,5.1-5.2,9.2-11.5,9.2H11.5
					C5.2,105,0,100.8,0,95.8V26.5L0,26.5z"/>
			</defs>
			<clipPath id="SVGID_2_">
				<use xlink:href="#SVGID_1_"  style="overflow:visible;"/>
			</clipPath>
			<g class="st2">
				<g>
					<g>
						<defs>
							<polygon id="SVGID_3_" points="0.2,14.9 115.5,14.7 116.5,108.3 -1.3,108.3 							"/>
						</defs>
						<use xlink:href="#SVGID_3_"  style="overflow:visible;fill-rule:evenodd;clip-rule:evenodd;fill:#2A3077;"/>
						<clipPath id="SVGID_4_">
							<use xlink:href="#SVGID_3_"  style="overflow:visible;"/>
						</clipPath>
						<g class="st3">
							<g>
								<path class="st4" d="M94.1,71.8c0,0,2.8-37.1-22.7-43.4c-3.9-1-11.8-1.1-19.6,1.3c-8.1,2.5-16.6,7.4-21.3,11.8
									c-7.5,6.9-12.7,13.1-13.2,22.2C16.8,73.9,30.2,93.7,67,92.9L48.4,76.7c0,0-6.3-5.9,0-11.1c7.4-6.1,19.9-16.2,26.7-9.9
									C81.3,61.6,94.1,71.8,94.1,71.8z"/>
							</g>
							<g>
								<path class="st5" d="M63.7,27.8c-10,0.9-36.7-1.2-61.2-14.3"/>
							</g>
							<g>
								<path class="st4" d="M17.4,66.8c-1.2-2-6-16.1-22-30"/>
							</g>
						</g>
					</g>
				</g>
			</g>
		</g>
	</g>
</g>
</svg>
